<?xml version="1.0" encoding="utf-8"?>
<!-- Generator: Adobe Adobe Illustrator 24.2.0, SVG Export Plug-In . SVG Version: 6.00 Build 0)  -->
<svg version="1.1" id="Layer_1" xmlns="http://www.w3.org/2000/svg" xmlns:xlink="http://www.w3.org/1999/xlink" x="0px" y="0px"
	 width="360px" height="369px" viewBox="0 0 360 369" style="enable-background:new 0 0 360 369;" xml:space="preserve">
<style type="text/css">
	.st0{stroke:#000000;stroke-miterlimit:10;}
	.st1{fill:none;stroke:#044F09;stroke-width:7;stroke-miterlimit:10;}
	.st2{fill:#044F09;stroke:#044F09;stroke-width:3;stroke-miterlimit:10;}
	.st3{fill:#086E30;stroke:#044F09;stroke-width:7;stroke-linecap:round;stroke-linejoin:round;stroke-miterlimit:10;}
</style>
<g>
	<path class="st0" d="M237.69,117l1.07,32.93h-4.58c-0.91-7.21-2.94-13.17-6.09-17.88c-3.15-4.71-6.45-7.65-9.89-8.82
		c-3.44-1.17-9.26-1.75-17.44-1.75h-25.82v56.02h12.37c7.99,0,13.3-1.35,15.93-4.04c2.63-2.69,3.95-8.1,3.95-16.22h4.87v46.57h-4.87
		c0-5.65-0.57-10.12-1.71-13.4c-1.14-3.28-2.83-5.52-5.07-6.72c-2.24-1.2-6.61-1.8-13.1-1.8h-12.37v32.83
		c0,10.39,0.26,17.2,0.78,20.41c0.52,3.21,1.83,5.6,3.95,7.16c2.11,1.56,6.19,2.34,12.23,2.34h4.48v4.48H135v-4.48h4.09
		c5.65,0,9.56-0.71,11.74-2.14c2.18-1.43,3.57-3.65,4.19-6.67c0.62-3.02,0.93-10.05,0.93-21.09v-64.79
		c0-10.52-0.31-17.31-0.93-20.36c-0.62-3.05-1.92-5.16-3.9-6.33c-1.98-1.17-6.32-1.75-13.01-1.75h-2.34V117H237.69z"/>
</g>
<circle class="st1" cx="184.5" cy="175.5" r="166.5"/>
<g>
	<path class="st2" d="M171,94.24V67.76c0-2.63,2.13-4.76,4.76-4.76h17.49c2.63,0,4.76,2.13,4.76,4.76v26.49
		c0,2.63-2.13,4.76-4.76,4.76h-17.49C173.13,99,171,96.87,171,94.24z"/>
	<line class="st3" x1="162" y1="99" x2="207" y2="99"/>
</g>
</svg>
