<?xml version="1.0" encoding="utf-8"?>
<!-- Generator: Adobe Adobe Illustrator 24.2.0, SVG Export Plug-In . SVG Version: 6.00 Build 0)  -->
<svg version="1.1" id="Layer_1" xmlns="http://www.w3.org/2000/svg" xmlns:xlink="http://www.w3.org/1999/xlink" x="0px" y="0px"
	 width="1088px" height="192px" viewBox="0 0 1088 192" style="enable-background:new 0 0 1088 192;" xml:space="preserve">
<style type="text/css">
	.st0{fill:#1F4D24;}
	.st1{fill:none;}
</style>
<g>
	<path class="st0" d="M100.86,119.63c-3.45,4.69-7.09,7.73-10.92,9.12c-3.83,1.39-9.7,2.09-17.62,2.09h-9.78
		c-7.41,0-12.24-0.65-14.48-1.95c-2.25-1.3-3.63-3.12-4.13-5.46c-0.51-2.34-0.76-8.17-0.76-17.48V38.52c0-10.7,0.33-17.48,1-20.33
		c0.67-2.85,1.98-4.8,3.94-5.84c1.96-1.04,6.11-1.57,12.44-1.57h5.7V6.42H4.41v4.37h2.85c6.52,0,10.75,0.57,12.68,1.71
		c1.93,1.14,3.2,3.2,3.8,6.17c0.6,2.98,0.9,9.59,0.9,19.85v63.16c0,10.77-0.3,17.62-0.9,20.56c-0.6,2.94-1.96,5.11-4.08,6.51
		c-2.12,1.39-5.94,2.09-11.44,2.09h-3.8v4.37h109.42l0.95-37.9h-4.46C107.47,107.51,104.32,114.95,100.86,119.63z"/>
	<path class="st0" d="M201.31,124.38c-0.25-2.15-0.38-7.47-0.38-15.96v-51h-27.16v4.37h1.99c4.5,0,7.46,0.68,8.88,2.04
		c1.42,1.36,2.23,2.96,2.42,4.8c0.19,1.84,0.28,7,0.28,15.48v17.57c0,6.65-0.81,11.76-2.42,15.34c-1.61,3.58-4.64,6.97-9.07,10.16
		c-4.43,3.2-9.09,4.8-13.96,4.8c-3.42,0-6.43-0.9-9.02-2.71c-2.6-1.8-4.21-3.91-4.84-6.32c-0.63-2.41-0.95-6.27-0.95-11.59V57.42
		h-26.4v4.37c4.5,0,7.58,0.48,9.26,1.42c1.68,0.95,2.67,2.42,2.99,4.42c0.32,1.99,0.48,7.49,0.48,16.48v26.5
		c0,6.9,0.74,12.06,2.23,15.48c1.49,3.42,4.23,6.32,8.22,8.69c3.99,2.37,8.58,3.56,13.77,3.56c6.02,0,11.51-1.52,16.48-4.56
		c4.97-3.04,9.39-7.57,13.25-13.58c0.13,8.55,1.2,14.56,3.23,18.05h1.14c4.43-1.9,11.46-2.91,21.09-3.04v-4.37
		c-4.18,0-7.08-0.54-8.69-1.61C202.49,128.15,201.56,126.53,201.31,124.38z"/>
	<path class="st0" d="M268.17,133.31c-9.31,0-16.26-3.45-20.85-10.35c-4.59-6.9-6.89-16.46-6.89-28.68
		c0-11.84,2.14-20.71,6.41-26.59c4.27-5.89,10.65-8.83,19.14-8.83c4.75,0,7.95,0.73,9.59,2.18c1.58,1.46,2.75,4.02,3.51,7.69
		c0.95,4.88,3.51,7.31,7.69,7.31c1.96,0,3.47-0.7,4.51-2.09c1.04-1.39,1.57-2.88,1.57-4.46c0-4.24-2.82-7.84-8.45-10.78
		c-5.64-2.94-11.81-4.42-18.52-4.42c-11.15,0-20.8,3.96-28.97,11.87c-8.17,7.92-12.25,18.24-12.25,30.96
		c0,12.41,3.78,22.38,11.35,29.92c7.57,7.54,16.89,11.3,27.97,11.3c17.22,0,27.99-7.38,32.29-22.13h-4.18
		C288.69,127.61,280.71,133.31,268.17,133.31z"/>
	<path class="st0" d="M373.69,118.87l-27.73-32.48c6.52-5.13,11.33-9.02,14.44-11.68c9.69-8.48,17.41-12.79,23.18-12.92v-4.37
		h-31.34v4.37c4.88,0.13,7.31,1.58,7.31,4.37c0,4.12-6.62,10.86-19.85,20.23l-8.17,5.7V4.61h-1.99c-1.9,0.89-5.46,1.77-10.69,2.66
		c-5.22,0.89-9.7,1.33-13.44,1.33v4.37c5.44,0,8.88,1.04,10.31,3.13c1.42,2.09,2.14,6.9,2.14,14.44v77.98
		c0,8.68-0.1,13.91-0.29,15.72s-0.97,3.36-2.33,4.65c-1.36,1.3-4.32,1.95-8.88,1.95h-2.94v4.37h39.42v-4.37
		c-3.93,0-6.68-0.58-8.26-1.76c-1.58-1.17-2.49-2.82-2.71-4.94c-0.22-2.12-0.33-7.33-0.33-15.62V97.31l4.08-3.04l19.95,23.17
		c4.24,4.94,6.36,8.01,6.36,9.21c0,2.66-3.23,4.05-9.69,4.18v4.37h38.75v-4.37c-2.53-0.13-5-0.93-7.41-2.42
		C381.16,126.93,377.87,123.75,373.69,118.87z"/>
	<path class="st0" d="M451.86,61.79c7.03,0.13,10.54,1.77,10.54,4.94c0,0.7-1.3,4.21-3.89,10.54l-18.05,43.22l-21.37-45.5
		c-2.47-5.25-3.7-8.36-3.7-9.31c0-2.41,3.13-3.7,9.4-3.89v-4.37h-35.71v4.37c4.12,0,7.03,0.73,8.74,2.18
		c1.71,1.46,3.86,4.94,6.46,10.45l29.25,62.69l-7.41,18.52c-1.27,3.17-2.55,5.35-3.85,6.55c-1.3,1.2-3.88,2.66-7.74,4.37
		c-6.59,2.98-9.88,6.62-9.88,10.92c0,3.74,2.06,5.6,6.17,5.6c3.04,0,5.83-1.44,8.36-4.32c2.53-2.88,5.44-8.31,8.74-16.29
		l34.67-83.68c2.91-7.03,5.35-11.57,7.31-13.63c1.96-2.06,5.06-3.18,9.31-3.37v-4.37h-27.35V61.79z"/>
	<path class="st0" d="M607.58,69.44c-5.03-3.01-13.09-6.98-24.17-11.92c-11.59-5.19-19.6-9.88-24.03-14.06
		c-4.5-4.12-6.74-9.15-6.74-15.1c0-4.94,1.79-9.48,5.37-13.63c3.58-4.15,9.2-6.22,16.86-6.22c8.04,0,15.12,2.82,21.23,8.45
		c6.11,5.64,10.37,13.36,12.77,23.17h4.18V6.42h-4.18c-0.38,4.05-2.03,7.82-4.94,11.3c-5.07-5.57-10.01-9.24-14.82-11.02
		c-4.81-1.77-9.94-2.66-15.39-2.66c-9.75,0-17.81,3.06-24.17,9.17c-6.36,6.11-9.55,13.76-9.55,22.94c0,6.02,1.47,11.68,4.42,17
		s7.04,9.64,12.3,12.96c5.26,3.32,13.04,7.2,23.36,11.63c11.59,4.94,19.57,9.56,23.94,13.87c4.37,4.37,6.55,9.78,6.55,16.24
		c0,6.4-2.49,12.17-7.46,17.33c-4.97,5.16-11.98,7.74-21.04,7.74c-20.14,0-32.9-13.49-38.28-40.46h-4.75v41.41h4.75
		c1.01-5.38,2.56-9.56,4.65-12.54c9.43,10.83,21.21,16.24,35.33,16.24c12.28,0,22.1-3.45,29.44-10.35
		c7.34-6.9,11.02-15.86,11.02-26.88c0-6.96-1.52-13.11-4.56-18.43C616.65,76.61,612.61,72.44,607.58,69.44z"/>
	<path class="st0" d="M719.75,125.14c-0.35-1.96-0.52-7.5-0.52-16.62V87.05c0-8.74-0.63-15.05-1.9-18.95
		c-1.27-3.89-4.01-7.17-8.22-9.83c-4.21-2.66-9.51-3.99-15.91-3.99c-5.64,0-10.81,1.33-15.53,3.99c-4.72,2.66-8.98,6.65-12.77,11.97
		V4.61h-1.99c-6.52,2.66-14.69,3.99-24.5,3.99v4.37c5.64,0,9.2,1.04,10.69,3.13c1.49,2.09,2.23,7.06,2.23,14.91v77.5
		c0,8.68-0.11,13.91-0.33,15.72c-0.22,1.8-1.01,3.36-2.37,4.65c-1.36,1.3-4.32,1.95-8.88,1.95h-1.99v4.37h39.51v-4.37
		c-4.37,0-7.38-0.52-9.02-1.57c-1.65-1.04-2.61-2.58-2.9-4.61c-0.28-2.03-0.43-7.41-0.43-16.15V77.37
		c2.98-5.76,6.43-10.08,10.35-12.96c3.93-2.88,8.36-4.32,13.3-4.32c4.24,0,7.77,1.01,10.59,3.04c2.82,2.03,4.61,4.59,5.37,7.69
		c0.76,3.1,1.14,7.88,1.14,14.34v23.37c0,8.61-0.11,13.82-0.33,15.62c-0.22,1.8-1.01,3.37-2.37,4.7c-1.36,1.33-4.35,1.99-8.98,1.99
		h-1.8v4.37h40.18v-4.37c-4.62,0-7.79-0.46-9.5-1.38C721.13,128.55,720.1,127.1,719.75,125.14z"/>
	<path class="st0" d="M814.4,130.27c-2.53,0-4.18-1.04-4.94-3.13s-1.14-6.81-1.14-14.15V81.55c0-6.65-0.71-11.59-2.14-14.82
		c-1.42-3.23-4.35-6.11-8.79-8.64c-4.43-2.53-10.67-3.8-18.71-3.8c-10.83,0-18.81,2.07-23.94,6.22c-5.13,4.15-7.69,8.03-7.69,11.64
		c0,3.67,1.93,5.51,5.79,5.51c4.31,0,6.96-3.23,7.98-9.69c1.08-6.33,6.36-9.5,15.86-9.5c4.75,0,8.58,0.95,11.49,2.85
		c2.91,1.9,4.72,4.05,5.41,6.46c0.7,2.41,1.04,6.3,1.04,11.68v3.8l-14.72,5.98c-11.21,4.62-19.99,9.37-26.36,14.25
		c-6.36,4.88-9.55,10.58-9.55,17.1c0,5,1.9,9.02,5.7,12.06s8.33,4.56,13.58,4.56c4.12,0,8.79-1.14,14.01-3.42
		c5.22-2.28,11-5.67,17.33-10.16c0.76,4.5,2.39,7.88,4.89,10.16c2.5,2.28,5.9,3.42,10.21,3.42c10.07,0,15.39-5.41,15.96-16.24h-3.51
		C821.17,127.17,818.57,130.27,814.4,130.27z M794.64,118.49c-4.88,3.93-9.28,6.87-13.2,8.83c-3.93,1.96-7.38,2.94-10.35,2.94
		c-3.36,0-6.08-1.22-8.17-3.66c-2.09-2.44-3.13-5.65-3.13-9.64c0-10.07,8.17-18.43,24.5-25.07l10.35-4.18V118.49z"/>
	<path class="st0" d="M883.73,54.29c-5.19,0-10.12,1.06-14.77,3.18c-4.65,2.12-9.01,5.33-13.06,9.64c0-5-0.54-9.28-1.61-12.82h-2.56
		c-9.56,2.53-17.48,4.12-23.74,4.75v4.37h2.85c4.05,0,6.87,0.57,8.45,1.71c1.58,1.14,2.48,2.79,2.71,4.94
		c0.22,2.15,0.33,7.38,0.33,15.67v70.66c0,8.67-0.11,13.91-0.33,15.72c-0.22,1.8-1.01,3.36-2.37,4.65c-1.36,1.3-4.29,1.95-8.79,1.95
		h-2.85v4.37h40.65v-4.37c-4.5,0-7.57-0.49-9.21-1.47c-1.65-0.98-2.64-2.45-2.99-4.42c-0.35-1.96-0.52-7.44-0.52-16.43v-29.54
		c3.93,3.8,8.09,6.67,12.49,8.6c4.4,1.93,9.01,2.9,13.82,2.9c11.71,0,21.16-4.08,28.35-12.25c7.19-8.17,10.78-18.33,10.78-30.49
		c0-12.41-3.58-22.4-10.73-29.97C903.45,58.07,894.49,54.29,883.73,54.29z M897.6,124c-5.32,6.14-11.56,9.21-18.71,9.21
		c-4.24,0-8.28-1.06-12.11-3.18c-3.83-2.12-7.46-5.27-10.88-9.45v-47.3c3.55-4.5,7.28-7.85,11.21-10.07
		c3.93-2.22,8.07-3.32,12.44-3.32c7.09,0,13.2,2.88,18.33,8.64c5.13,5.76,7.69,14.47,7.69,26.12
		C905.58,108.08,902.92,117.86,897.6,124z"/>
	<path class="st0" d="M1006.73,83.73c-0.32-7.22-3.26-13.93-8.83-20.14c-5.57-6.2-13.46-9.31-23.65-9.31
		c-10.83,0-19.85,4.07-27.07,12.21c-7.22,8.14-10.83,18.35-10.83,30.63c0,8.68,1.87,16.05,5.6,22.13
		c3.74,6.08,8.53,10.78,14.39,14.1c5.86,3.32,12.08,4.99,18.66,4.99c7.09,0,13.64-1.82,19.66-5.46c6.01-3.64,10.04-8.69,12.06-15.15
		h-4.56c-4.81,10.32-12.98,15.48-24.5,15.48c-8.49,0-14.86-3.43-19.14-10.31c-4.27-6.87-6.41-17.14-6.41-30.82
		c0-1.84,0.13-4.62,0.38-8.36H1006.73z M973.49,58.47c4.75,0,8.75,1.54,12.01,4.61c3.26,3.07,4.89,7.39,4.89,12.96
		c0,1.14-0.09,2.44-0.29,3.89h-37.23C955.09,65.62,961.96,58.47,973.49,58.47z"/>
	<path class="st0" d="M1068.94,101.97c-2.41-4.62-8.99-9.37-19.76-14.25c-7.16-3.23-12-6.11-14.53-8.64
		c-2.6-2.47-3.89-5.41-3.89-8.83c0-3.1,1.17-5.82,3.51-8.17c2.34-2.34,5.41-3.51,9.21-3.51c4.94,0,9.23,2.07,12.87,6.22
		c3.64,4.15,6.09,9.1,7.36,14.86h3.51V55.62h-3.51c-1.52,3.67-2.75,5.98-3.7,6.93c-4.43-5.51-10.04-8.26-16.81-8.26
		c-6.65,0-11.81,2.33-15.48,6.98c-3.67,4.65-5.51,9.55-5.51,14.67c0,5.38,1.71,9.91,5.13,13.58c3.42,3.74,9.05,7.54,16.91,11.4
		c7.47,3.67,12.5,6.81,15.1,9.4c2.53,2.6,3.8,5.92,3.8,9.97c0,3.48-1.19,6.68-3.56,9.59c-2.37,2.91-5.97,4.37-10.78,4.37
		c-11.08,0-18.77-7.38-23.08-22.13h-3.71v25.55h3.71c1.08-3.55,2.47-6.27,4.18-8.17c5.57,5.89,11.93,8.83,19.09,8.83
		c6.77,0,12.39-2.12,16.86-6.36c4.46-4.24,6.7-9.75,6.7-16.53C1072.55,111.15,1071.35,106.65,1068.94,101.97z"/>
</g>
<rect x="924.5" y="82.05" class="st1" width="447" height="724"/>
</svg>
