<?xml version="1.0" encoding="utf-8"?>
<!-- Generator: Adobe Adobe Illustrator 24.2.0, SVG Export Plug-In . SVG Version: 6.00 Build 0)  -->
<svg version="1.1" xmlns="http://www.w3.org/2000/svg" xmlns:xlink="http://www.w3.org/1999/xlink" x="0px" y="0px" width="1728px"
	 height="1296px" viewBox="0 0 1728 1296" style="enable-background:new 0 0 1728 1296;" xml:space="preserve">
<style type="text/css">
	.st0{fill:none;}
	.st1{fill:#086E30;stroke:#044F09;stroke-width:4;stroke-linecap:round;stroke-linejoin:round;stroke-miterlimit:10;}
	.st2{clip-path:url(#SVGID_2_);}
	.st3{fill:#086E30;}
	.st4{fill:#044F09;}
	.st5{clip-path:url(#SVGID_2_);fill:#044F09;}
	.st6{clip-path:url(#SVGID_2_);fill:none;stroke:#044F09;stroke-miterlimit:10;}
	.st7{clip-path:url(#SVGID_4_);}
	.st8{clip-path:url(#SVGID_4_);fill:#044F09;}
	.st9{clip-path:url(#SVGID_4_);fill:none;stroke:#044F09;stroke-miterlimit:10;}
	.st10{clip-path:url(#SVGID_6_);}
	.st11{clip-path:url(#SVGID_8_);}
	.st12{fill:#005210;}
	.st13{font-family:'Baskerville';}
	.st14{font-size:175.03px;}
	.st15{fill:#00C735;}
	.st16{clip-path:url(#SVGID_10_);}
	.st17{clip-path:url(#SVGID_10_);fill:#044F09;}
	.st18{clip-path:url(#SVGID_10_);fill:none;stroke:#044F09;stroke-miterlimit:10;}
	.st19{clip-path:url(#SVGID_12_);}
	.st20{clip-path:url(#SVGID_12_);fill:#044F09;}
	.st21{clip-path:url(#SVGID_12_);fill:none;stroke:#044F09;stroke-miterlimit:10;}
	.st22{clip-path:url(#SVGID_14_);}
	.st23{clip-path:url(#SVGID_16_);}
</style>
<g id="Layer_1">
	<rect x="900.8" y="641.96" class="st0" width="59.41" height="17.14"/>
	<path class="st1" d="M885.13,654.04c15.63,0,31.26,0,46.9,0"/>
	<g>
		<g>
			<defs>
				<rect id="SVGID_1_" x="892.51" y="614.96" width="16.5" height="39.51"/>
			</defs>
			<clipPath id="SVGID_2_">
				<use xlink:href="#SVGID_1_"  style="overflow:visible;"/>
			</clipPath>
			<g class="st2">
				<path class="st3" d="M906.72,653.75h-13.36v-33.87c0-2.4,2.3-4.35,5.14-4.35l9.85-0.14c0-0.01,0-0.02,0-0.03
					c0-0.13,0-0.25,0-0.38c0,0.13,0,0.25,0,0.38c0,0.01,0,0.02,0,0.03l0.3,0c0-0.1,0.01-0.19,0.01-0.29c0-0.05,0-0.1,0-0.15l-0.32,0
					l-10.17,0.15c-2.92,0.04-5.27,2.04-5.3,4.51l-0.38,34.86h14.21C906.71,654.23,906.71,653.99,906.72,653.75z"/>
				<path class="st4" d="M908.36,614.96l-10.17,0.15c-2.92,0.04-5.27,2.04-5.3,4.51l-0.38,34.86h14.21c-0.01-0.24,0-0.48,0.01-0.72
					h-13.36v-33.87c0-2.4,2.3-4.35,5.14-4.35l9.85-0.14c0-0.01,0-0.02,0-0.03c0-0.13,0-0.25,0-0.38c0,0.13,0,0.25,0,0.38
					c0,0.01,0,0.02,0,0.03l0.3,0c0-0.1,0.01-0.19,0.01-0.29c0-0.05,0-0.1,0-0.15L908.36,614.96L908.36,614.96z M906.72,653.75
					L906.72,653.75L906.72,653.75z"/>
			</g>
			<path class="st5" d="M908.47,650.31c-0.01-0.26-0.02-0.53-0.04-0.79c0-0.27-0.01-0.53-0.01-0.79c-0.03-0.25,0.02-0.55-0.14-0.76
				c0.02-0.03,0.03-0.05,0.05-0.08c0.03-0.44,0.04-0.88,0.07-1.32c0.02-0.28,0.06-0.54,0.13-0.79c-0.04-0.41-0.08-0.81-0.12-1.21
				c0.01-0.64-0.05-1.28-0.12-1.92c0.06-0.23,0.09-0.47,0.13-0.69c0.18-1.43,0.1-2.86-0.03-4.28c0.02-0.22,0.04-0.43,0.06-0.63
				c0.03-0.16,0.04-0.27,0.05-0.37c0.02-0.08,0.03-0.17,0.03-0.25c0.01-0.1,0.01-0.19-0.01-0.28c0-0.02,0-0.03,0-0.05
				c-0.03-0.31-0.06-0.63-0.1-0.94c0.01-0.73,0.03-1.46,0.06-2.19c0.04-0.75,0.06-1.76,0.03-2.26c0.01-0.18-0.15-0.33-0.32-0.34
				c0-0.05-0.01-0.09-0.01-0.14c0-0.02,0-0.04,0-0.06c0.01-0.75,0.07-1.72,0.08-2.64c0.05-0.23,0.09-0.45,0.1-0.68c0,0,0,0,0-0.01
				c0-0.08,0.01-0.17,0-0.25c-0.04-0.06-0.08-0.1-0.12-0.13c0,0,0-0.01,0-0.01c0.01-0.07,0-0.14-0.01-0.21
				c0-0.19,0.01-0.37,0.02-0.56c0-0.06,0.01-0.12,0.02-0.18c0-0.01,0.01-0.02,0.01-0.03c0.13-1.48,0.21-2.64,0.41-3.85
				c0.02-0.23-0.13-0.4-0.32-0.47c0.18-0.85,0.12-2.06,0.08-2.9c-0.01-0.18-0.02-0.43-0.06-0.66c0.1-0.37,0.15-0.76,0.23-1.13
				c0,0,0,0,0,0c0.07-0.14,0.13-0.27,0.09-0.42c-0.03-0.1-0.09-0.16-0.17-0.2c-0.01-0.01-0.02-0.02-0.03-0.04
				c0.02-0.01,0.03-0.03,0.04-0.04c0.03-0.27,0.07-0.55,0.12-0.83H897.6c-2.57,0-4.66,2.09-4.66,4.66v32.95
				c0,0.81,0.66,1.47,1.47,1.47h12.3c0.08,0.21,0.22,0.38,0.48,0.33c0.1-0.01,0.19-0.06,0.25-0.12c0.18,0.16,0.46,0.17,0.64,0.01
				c0.2-0.12,0.3-0.38,0.31-0.61c0-0.12-0.01-0.24-0.01-0.35c0.09-0.05,0.17-0.12,0.22-0.21c0.19-0.41,0.05-0.88,0.02-1.31
				C908.57,651.29,908.52,650.8,908.47,650.31z"/>
			<line class="st6" x1="908.57" y1="614.96" x2="908.57" y2="654.04"/>
		</g>
		<g>
			<defs>
				<rect id="SVGID_3_" x="909.01" y="614.96" width="16.5" height="39.51"/>
			</defs>
			<clipPath id="SVGID_4_">
				<use xlink:href="#SVGID_3_"  style="overflow:visible;"/>
			</clipPath>
			<g class="st7">
				<path class="st3" d="M911.29,653.75h13.36v-33.87c0-2.4-2.3-4.35-5.14-4.35l-9.85-0.14c0-0.01,0-0.02,0-0.03
					c0-0.13,0-0.25,0-0.38c0,0.13,0,0.25,0,0.38c0,0.01,0,0.02,0,0.03l-0.3,0c0-0.1-0.01-0.19-0.01-0.29c0-0.05,0-0.1,0-0.15l0.32,0
					l10.17,0.15c2.92,0.04,5.27,2.04,5.3,4.51l0.38,34.86H911.3C911.31,654.23,911.3,653.99,911.29,653.75z"/>
				<path class="st4" d="M909.66,614.96l-0.32,0c0,0.05,0,0.1,0,0.15c0,0.1,0.01,0.19,0.01,0.29l0.3,0c0-0.01,0-0.02,0-0.03
					c0-0.13,0-0.25,0-0.38c0,0.13,0,0.25,0,0.38c0,0.01,0,0.02,0,0.03l9.85,0.14c2.84,0,5.14,1.95,5.14,4.35v33.87h-13.36
					c0.01,0.24,0.02,0.48,0.01,0.72h14.21l-0.38-34.86c-0.03-2.47-2.38-4.47-5.3-4.51L909.66,614.96L909.66,614.96z"/>
			</g>
			<path class="st8" d="M909.54,650.31c0.01-0.26,0.02-0.53,0.04-0.79c0-0.27,0.01-0.53,0.01-0.79c0.03-0.25-0.02-0.55,0.14-0.76
				c-0.02-0.03-0.03-0.05-0.05-0.08c-0.03-0.44-0.04-0.88-0.07-1.32c-0.02-0.28-0.06-0.54-0.13-0.79c0.04-0.41,0.08-0.81,0.12-1.21
				c-0.01-0.64,0.05-1.28,0.12-1.92c-0.06-0.23-0.09-0.47-0.13-0.69c-0.18-1.43-0.1-2.86,0.03-4.28c-0.02-0.22-0.04-0.43-0.06-0.63
				c-0.03-0.16-0.04-0.27-0.05-0.37c-0.02-0.08-0.03-0.17-0.03-0.25c-0.01-0.1-0.01-0.19,0.01-0.28c0-0.02,0-0.03,0-0.05
				c0.03-0.31,0.06-0.63,0.1-0.94c-0.01-0.73-0.03-1.46-0.06-2.19c-0.04-0.75-0.06-1.76-0.03-2.26c-0.01-0.18,0.15-0.33,0.32-0.34
				c0-0.05,0.01-0.09,0.01-0.14c0-0.02,0-0.04,0-0.06c-0.01-0.75-0.07-1.72-0.08-2.64c-0.05-0.23-0.09-0.45-0.1-0.68c0,0,0,0,0-0.01
				c0-0.08-0.01-0.17,0-0.25c0.04-0.06,0.08-0.1,0.12-0.13c0,0,0-0.01,0-0.01c-0.01-0.07,0-0.14,0.01-0.21
				c0-0.19-0.01-0.37-0.02-0.56c-0.01-0.06-0.01-0.12-0.02-0.18c0-0.01-0.01-0.02-0.01-0.03c-0.13-1.48-0.21-2.64-0.41-3.85
				c-0.02-0.23,0.13-0.4,0.32-0.47c-0.18-0.85-0.12-2.06-0.08-2.9c0.01-0.18,0.02-0.43,0.06-0.66c-0.1-0.37-0.15-0.76-0.23-1.13
				c0,0,0,0,0,0c-0.07-0.14-0.13-0.27-0.09-0.42c0.03-0.1,0.09-0.16,0.17-0.2c0.01-0.01,0.02-0.02,0.03-0.04
				c-0.02-0.01-0.03-0.03-0.04-0.04c-0.03-0.27-0.07-0.55-0.12-0.83h11.07c2.57,0,4.66,2.09,4.66,4.66v32.95
				c0,0.81-0.66,1.47-1.47,1.47h-12.3c-0.08,0.21-0.22,0.38-0.48,0.33c-0.1-0.01-0.19-0.06-0.25-0.12
				c-0.18,0.16-0.46,0.17-0.64,0.01c-0.2-0.12-0.3-0.38-0.31-0.61c0-0.12,0.01-0.24,0.01-0.35c-0.09-0.05-0.17-0.12-0.22-0.21
				c-0.19-0.41-0.05-0.88-0.02-1.31C909.44,651.29,909.49,650.8,909.54,650.31z"/>
			<line class="st9" x1="909.44" y1="614.96" x2="909.44" y2="654.04"/>
		</g>
	</g>
	<rect x="431.95" y="108.81" class="st0" width="4.28" height="4.28"/>
	<rect x="886.35" y="654.44" class="st0" width="0" height="0"/>
	<g>
		<g>
			<defs>
				<rect id="SVGID_5_" x="886.75" y="695.81" width="44.75" height="35.36"/>
			</defs>
			<clipPath id="SVGID_6_">
				<use xlink:href="#SVGID_5_"  style="overflow:visible;"/>
			</clipPath>
			<g class="st10">
				<path d="M928.61,727.85c-4.43,0-7.42-0.58-8.99-1.73c-1.56-1.15-2.53-2.92-2.89-5.3s-0.54-7.42-0.54-15.12l-0.02-9.61
					c-1.25-0.03-2.5-0.13-3.75-0.24c-2.8,0.1-5.62,0.22-8.42,0.07c-0.65-0.04-1.3-0.07-1.95-0.1v9.88c0,8.18-0.22,13.39-0.65,15.63
					c-0.43,2.24-1.46,3.89-3.07,4.94c-1.61,1.06-4.51,1.59-8.7,1.59h-2.89v3.32l44.75,0v-3.32H928.61z"/>
			</g>
		</g>
		<g>
			<defs>
				<rect id="SVGID_7_" x="886.75" y="660.45" width="44.75" height="35.36"/>
			</defs>
			<clipPath id="SVGID_8_">
				<use xlink:href="#SVGID_7_"  style="overflow:visible;"/>
			</clipPath>
			<g class="st11">
				<path d="M928.61,663.77c-4.43,0-7.42,0.58-8.99,1.73c-1.56,1.15-2.53,2.92-2.89,5.3c-0.36,2.38-0.54,7.42-0.54,15.12l-0.02,9.61
					c-1.25,0.03-2.5,0.13-3.75,0.24c-2.8-0.1-5.62-0.22-8.42-0.07c-0.65,0.04-1.3,0.07-1.95,0.1v-9.88c0-8.18-0.22-13.39-0.65-15.63
					c-0.43-2.24-1.46-3.89-3.07-4.94c-1.61-1.06-4.51-1.59-8.7-1.59h-2.89v-3.32h44.75v3.32H928.61z"/>
			</g>
		</g>
	</g>
	<rect x="934.72" y="706.86" class="st0" width="42.15" height="9.22"/>
	<path d="M909.84,692.69c-0.03,0.03-0.05,0.06-0.07,0.08c-0.02-0.02-0.05-0.05-0.08-0.06c-0.19-0.05-0.41,0.1-0.54,0.23
		c-0.19,0.2-0.37,0.43-0.55,0.66c-0.02-0.07-0.06-0.12-0.12-0.13c0-0.02-0.01-0.04-0.02-0.06c0.04-0.09,0.01-0.2-0.07-0.25
		c-0.01-0.01-0.03-0.02-0.04-0.02c0,0,0,0,0-0.01c-0.02-0.12-0.15-0.21-0.27-0.16c-0.01,0-0.01,0.01-0.02,0.01
		c-0.08-0.04-0.19-0.04-0.25,0.03c-0.29,0.44-0.55,0.91-0.78,1.39c0.01-0.08,0.01-0.16,0.01-0.25c-0.01-0.03-0.03-0.04-0.04-0.06
		c0.03-0.12,0.06-0.24,0.08-0.36c0.04-0.12,0.02-0.26-0.08-0.33c0.04-0.15,0.08-0.3,0.12-0.45c0.03-0.17-0.16-0.36-0.32-0.23
		c-0.02,0.02-0.03,0.04-0.04,0.07c-0.08-0.05-0.2-0.05-0.25,0.05c-0.13,0.21-0.2,0.38-0.27,0.56c-0.09-0.1-0.23-0.13-0.37,0
		c-0.19,0.25-0.35,0.52-0.48,0.8c0.02-0.12-0.01-0.22-0.18-0.24c-0.16,0.01-0.2,0.13-0.23,0.21c0,0-0.01,0-0.01,0
		c0-0.06,0-0.11-0.01-0.16c-0.01-0.01-0.02-0.02-0.03-0.03c0.02-0.11,0.03-0.23,0.02-0.34c-0.04-0.15-0.17-0.21-0.3-0.19
		c-0.07-0.04-0.17-0.03-0.27,0.05c-0.12,0.16-0.07,0.13-0.14,0.29c-0.14,0.32-0.24,0.65-0.3,0.99c0-0.05,0.01-0.11,0.01-0.16
		c0.03-0.21-0.04-0.64-0.35-0.5c-0.05,0.04-0.09,0.1-0.12,0.15c-0.01,0.01-0.03,0.01-0.04,0.02c-0.02,0.03-0.03,0.05-0.04,0.08
		c-0.04-0.06-0.11-0.09-0.24-0.05c-0.01,0.01-0.01,0.02-0.01,0.04c-0.02-0.01-0.02-0.01-0.02-0.01c0.01,0,0.01,0.01,0.02,0.01
		c-0.01,0.03-0.02,0.06-0.04,0.09c-0.03,0.01-0.04,0.02-0.04,0.05c-0.01,0.04-0.01,0.08-0.02,0.12c-0.03,0.08-0.05,0.16-0.07,0.25
		c-0.05-0.12-0.13-0.19-0.3-0.06c-0.04,0.06-0.07,0.12-0.09,0.18c-0.04,0.02-0.07,0.05-0.09,0.1c-0.04,0.01-0.08,0.03-0.1,0.07
		c-0.04,0.08-0.06,0.16-0.07,0.25c-0.06,0.01-0.1,0.05-0.11,0.12c-0.04,0.04-0.06,0.11-0.05,0.17c0,0.06-0.02,0.27,0.04,0.3
		c0.01,0.05,0.04,0.08,0.07,0.09c0.01,0.02,0.01,0.04,0.02,0.06c0.07,0.05,0.12,0.04,0.15,0c0.04,0.19,0.17,0.4,0.37,0.34
		c0,0.03,0,0.07,0,0.1c0,0,0,0,0,0c0,0.03,0,0.06,0,0.1c0.01,0.02,0.03,0.03,0.05,0.03c0.06-0.01,0.06-0.08,0.05-0.15
		c0.01-0.05,0.03-0.11,0.04-0.19c0,0.11,0.01,0.21,0.02,0.3c0,0.11,0.05,0.18,0.13,0.22c0.01,0.23,0.07,0.42,0.29,0.37
		c0,0.25,0.01,0.56,0.19,0.67c0.18,0.05,0.26-0.06,0.3-0.21c0,0,0,0,0,0c0.07,0.22,0.24,0.4,0.44,0.17
		c0.03,0.01,0.05,0.02,0.08,0.02c0.01,0,0.02,0,0.03-0.01c0.01,0,0.02,0,0.03-0.01c0.03-0.01,0.06-0.02,0.09-0.05c0,0,0.01,0,0.01,0
		c0,0,0,0,0,0c0.01-0.01,0.03-0.03,0.04-0.05c0.03,0.05,0.07,0.1,0.12,0.12c0.08,0.11,0.2,0.13,0.29,0.08
		c0,0.06,0.01,0.12,0.02,0.18c0,0.02,0,0.04,0,0.07h0.02c0.01,0.05,0.02,0.1,0.04,0.14c0.09,0.09,0.25,0.07,0.31-0.04
		c0.01-0.03,0.01-0.07,0.01-0.1h0.01c0-0.02,0-0.04-0.01-0.06c0.02-0.22-0.02-0.45-0.02-0.66c0-0.03,0-0.06-0.01-0.09
		c0.03,0,0.05,0,0.08-0.02c0,0.01,0,0.02,0,0.03c-0.01,0.19-0.09,0.54,0.2,0.52c0.05,0,0.08-0.03,0.11-0.06
		c-0.03,0.4-0.03,0.81,0.29,0.68c0.04-0.05,0.07-0.11,0.09-0.16c0,0,0,0,0,0c0,0,0,0,0,0c0.05-0.13,0.08-0.27,0.11-0.42
		c0.04,0.14,0.13,0.22,0.3,0.18c0,0.41,0.08,0.73,0.39,0.59c0.05-0.11,0.1-0.23,0.15-0.36c0.05-0.04,0.09-0.09,0.1-0.16c0,0,0,0,0,0
		c0-0.01,0-0.02,0-0.03c0-0.02,0.01-0.03,0.01-0.05c0.01-0.07,0.02-0.14,0.03-0.21c0.04-0.12,0.07-0.25,0.1-0.38
		c0.03,0.11,0.12,0.19,0.24,0.18c0.15-0.05,0.18-0.13,0.26-0.25c0.04,0.1,0.17,0.17,0.28,0.1c0.04-0.03,0.07-0.07,0.1-0.1
		c0.06,0.07,0.17,0.1,0.25,0.05c0.02-0.03,0.03-0.06,0.05-0.08c0.01,0,0.01,0.01,0.02,0.01c0.02-0.05,0.04-0.1,0.07-0.14
		c0.11-0.17,0.23-0.35,0.34-0.53c-0.13,0.25-0.26,0.5-0.39,0.74c-0.1,0.26-0.34,0.52-0.29,0.81c0.06,0.11,0.13,0.13,0.21,0.11
		c0.01,0.06,0.04,0.11,0.13,0.15c0.12,0.03,0.19-0.04,0.24-0.13c0.01,0,0.01,0,0.02-0.01c0.01-0.02,0.02-0.04,0.04-0.06
		c0.08,0.03,0.18,0,0.23-0.08c0,0,0,0.01,0,0.01c0,0.07,0.04,0.13,0.09,0.16c0.28,0.13,0.38-0.23,0.52-0.4
		c0.01-0.01,0.02-0.03,0.03-0.04c-0.03,0.1-0.05,0.18-0.05,0.26c0,0,0,0,0,0c0,0,0,0,0,0c-0.02,0.18,0.03,0.29,0.19,0.28
		c0.11-0.01,0.15-0.12,0.21-0.2c0.07-0.11,0.14-0.23,0.21-0.35c0.01,0,0.01,0,0.02,0c-0.01,0.03-0.02,0.06-0.03,0.09
		c-0.01,0.11,0.08,0.21,0.18,0.24c0.19,0.02,0.33-0.12,0.45-0.3c0,0.04,0.01,0.08,0.04,0.11c0.1,0.13,0.31,0.07,0.39-0.05
		c0.06-0.1,0.12-0.19,0.18-0.28c0.05,0.08,0.16,0.13,0.25,0.09c0.11-0.06,0.18-0.18,0.25-0.29c0.01,0.18,0.23,0.23,0.36,0.12
		c0.06-0.07,0.11-0.14,0.16-0.2c0,0.02,0.01,0.04,0.02,0.06c-0.09,0.21,0.01,0.49,0.27,0.34c0.05-0.07,0.09-0.14,0.14-0.21
		c0.09,0.03,0.18,0.02,0.26-0.04c-0.01,0.1,0.05,0.2,0.15,0.22c0,0.01-0.01,0.01-0.01,0.02c0.03,0.11,0.17,0.17,0.26,0.11
		c0.04-0.03,0.07-0.08,0.1-0.13c0.02-0.02,0.03-0.05,0.05-0.1c0.02-0.04,0.03-0.07,0.06-0.11c0.21-0.42,0.43-0.84,0.66-1.26
		c0.02-0.03,0.04-0.06,0.06-0.09c0.03-0.05,0.06-0.09,0.09-0.14c0,0.04,0.01,0.08,0.02,0.12c0,0.17,0.11,0.36,0.3,0.32
		c0.03,0.04,0.07,0.07,0.12,0.09c0,0.01,0,0.01,0,0.02c0,0.02,0.01,0.03,0.01,0.04c-0.01,0.01-0.01,0.04,0,0.13
		c-0.02,0.16,0.09,0.35,0.27,0.3c0.08-0.02,0.11-0.07,0.13-0.13c0.01,0.01,0.03,0.01,0.04,0.01c0.21-0.01,0.18-0.21,0.14-0.4
		c0.02-0.01,0.03-0.03,0.05-0.06c0,0,0,0,0,0c0.14,0.05,0.31-0.06,0.32-0.22c0.02-0.01,0.04-0.03,0.06-0.05c0,0,0-0.01,0-0.01
		c0.05-0.04,0.09-0.1,0.09-0.17c0,0,0,0,0,0c0.02-0.13,0.01-0.29-0.01-0.43c0-0.07,0-0.14,0-0.2c0-0.01,0-0.01,0-0.02
		c0-0.16,0.05-0.34-0.02-0.48c-0.01-0.06-0.03-0.12-0.07-0.17c-0.02-0.05-0.05-0.09-0.1-0.12c0.01-0.05,0.01-0.08,0-0.07
		c0-0.04,0.01-0.09,0.01-0.14c-0.04-0.14-0.16-0.19-0.26-0.17c0-0.07,0.01-0.15,0-0.22c-0.01-0.02-0.02-0.04-0.03-0.06
		c0.1-0.15-0.01-0.39-0.21-0.31c-0.04,0.04-0.07,0.08-0.11,0.12c0-0.01,0-0.01,0.01-0.02c0.01-0.01-0.04,0.04-0.05,0.05
		c-0.03,0.04-0.06,0.08-0.09,0.12c-0.1,0.01-0.19,0.08-0.21,0.2c-0.01,0.03-0.01,0.07-0.01,0.1c-0.01,0.01-0.02,0.03-0.03,0.04
		c-0.02,0.02-0.04,0.03-0.05,0.05c0,0,0,0.01,0,0.01c-0.01,0-0.01,0-0.02,0c0.04-0.08,0.08-0.16,0.12-0.23
		c0.02-0.08-0.01-0.15-0.07-0.2c0-0.04-0.01-0.08-0.04-0.11c-0.01-0.01-0.02-0.02-0.03-0.02c0.1-0.16,0.19-0.32,0.29-0.48
		c0.08-0.13,0.16-0.31,0.05-0.44c-0.07-0.07-0.2-0.07-0.26,0c-0.26,0.22-0.48,0.48-0.7,0.75c-0.02,0-0.04,0-0.06,0
		c0.03-0.04,0.06-0.07,0.08-0.11c0.14-0.19-0.1-0.44-0.29-0.27c-0.11,0.13-0.21,0.27-0.31,0.4c-0.03,0-0.07,0.02-0.1,0.03
		c0-0.02,0.01-0.03,0.01-0.04c0.03-0.1,0.02-0.19-0.06-0.25c0.02-0.07,0.01-0.14-0.06-0.2c-0.25-0.16-0.38,0.22-0.52,0.36
		c-0.02,0.02-0.03,0.04-0.04,0.06c-0.1-0.06-0.25-0.04-0.31,0.1c-0.02-0.06-0.07-0.11-0.17-0.11c-0.05,0-0.1,0.02-0.13,0.06
		c-0.08,0.1-0.15,0.19-0.23,0.29c-0.05-0.02-0.12-0.01-0.23,0.03c-0.12,0.1-0.22,0.21-0.33,0.32c-0.01-0.05-0.04-0.1-0.08-0.14
		c0.02-0.04,0.05-0.08,0.07-0.12c0,0-0.01-0.01-0.01-0.01c0.01-0.02,0.02-0.04,0.04-0.06c0-0.01,0-0.02,0-0.03
		c0.03-0.15-0.06-0.31-0.24-0.24c-0.1,0.08-0.18,0.17-0.26,0.28c-0.07-0.02-0.13,0.01-0.19,0.06c-0.07-0.01-0.14,0-0.2,0.04
		c-0.14,0.11-0.28,0.24-0.4,0.36c0.06-0.1,0.12-0.2,0.18-0.29c0.08-0.13,0.24-0.34,0.15-0.47c0.03-0.19-0.19-0.38-0.35-0.22
		c-0.06,0.06-0.12,0.13-0.17,0.19c-0.05-0.08-0.14-0.13-0.25-0.09c0.03-0.04,0.06-0.09,0.08-0.13c0.02-0.04,0.05-0.07,0.07-0.11
		c0,0,0,0,0,0c0.01-0.02,0.02-0.03,0.03-0.05c0.02-0.04,0.03-0.08,0.03-0.12c0-0.01,0.01-0.01,0.01-0.02
		c0.05-0.07,0.07-0.18,0.02-0.25c0.03-0.05,0.06-0.1,0.08-0.15C910.16,692.78,909.99,692.61,909.84,692.69z"/>
	<text transform="matrix(1 0 0 1 486.9392 731.0586)"><tspan x="0" y="0" class="st12 st13 st14">F</tspan><tspan x="96.66" y="0" class="st13 st14">AM</tspan><tspan x="377.5" y="0" class="st15 st13 st14">  </tspan><tspan x="465.01" y="0" class="st13 st14">CO</tspan></text>
	<rect x="900.8" y="641.96" class="st0" width="59.41" height="17.14"/>
	<path class="st1" d="M885.13,654.04c15.63,0,31.26,0,46.9,0"/>
	<g>
		<g>
			<defs>
				<rect id="SVGID_9_" x="892.51" y="614.96" width="16.5" height="39.51"/>
			</defs>
			<clipPath id="SVGID_10_">
				<use xlink:href="#SVGID_9_"  style="overflow:visible;"/>
			</clipPath>
			<g class="st16">
				<path class="st3" d="M906.72,653.75h-13.36v-33.87c0-2.4,2.3-4.35,5.14-4.35l9.85-0.14c0-0.01,0-0.02,0-0.03
					c0-0.13,0-0.25,0-0.38c0,0.13,0,0.25,0,0.38c0,0.01,0,0.02,0,0.03l0.3,0c0-0.1,0.01-0.19,0.01-0.29c0-0.05,0-0.1,0-0.15l-0.32,0
					l-10.17,0.15c-2.92,0.04-5.27,2.04-5.3,4.51l-0.38,34.86h14.21C906.71,654.23,906.71,653.99,906.72,653.75z"/>
				<path class="st4" d="M908.36,614.96l-10.17,0.15c-2.92,0.04-5.27,2.04-5.3,4.51l-0.38,34.86h14.21c-0.01-0.24,0-0.48,0.01-0.72
					h-13.36v-33.87c0-2.4,2.3-4.35,5.14-4.35l9.85-0.14c0-0.01,0-0.02,0-0.03c0-0.13,0-0.25,0-0.38c0,0.13,0,0.25,0,0.38
					c0,0.01,0,0.02,0,0.03l0.3,0c0-0.1,0.01-0.19,0.01-0.29c0-0.05,0-0.1,0-0.15L908.36,614.96L908.36,614.96z M906.72,653.75
					L906.72,653.75L906.72,653.75z"/>
			</g>
			<path class="st17" d="M908.47,650.31c-0.01-0.26-0.02-0.53-0.04-0.79c0-0.27-0.01-0.53-0.01-0.79c-0.03-0.25,0.02-0.55-0.14-0.76
				c0.02-0.03,0.03-0.05,0.05-0.08c0.03-0.44,0.04-0.88,0.07-1.32c0.02-0.28,0.06-0.54,0.13-0.79c-0.04-0.41-0.08-0.81-0.12-1.21
				c0.01-0.64-0.05-1.28-0.12-1.92c0.06-0.23,0.09-0.47,0.13-0.69c0.18-1.43,0.1-2.86-0.03-4.28c0.02-0.22,0.04-0.43,0.06-0.63
				c0.03-0.16,0.04-0.27,0.05-0.37c0.02-0.08,0.03-0.17,0.03-0.25c0.01-0.1,0.01-0.19-0.01-0.28c0-0.02,0-0.03,0-0.05
				c-0.03-0.31-0.06-0.63-0.1-0.94c0.01-0.73,0.03-1.46,0.06-2.19c0.04-0.75,0.06-1.76,0.03-2.26c0.01-0.18-0.15-0.33-0.32-0.34
				c0-0.05-0.01-0.09-0.01-0.14c0-0.02,0-0.04,0-0.06c0.01-0.75,0.07-1.72,0.08-2.64c0.05-0.23,0.09-0.45,0.1-0.68c0,0,0,0,0-0.01
				c0-0.08,0.01-0.17,0-0.25c-0.04-0.06-0.08-0.1-0.12-0.13c0,0,0-0.01,0-0.01c0.01-0.07,0-0.14-0.01-0.21
				c0-0.19,0.01-0.37,0.02-0.56c0-0.06,0.01-0.12,0.02-0.18c0-0.01,0.01-0.02,0.01-0.03c0.13-1.48,0.21-2.64,0.41-3.85
				c0.02-0.23-0.13-0.4-0.32-0.47c0.18-0.85,0.12-2.06,0.08-2.9c-0.01-0.18-0.02-0.43-0.06-0.66c0.1-0.37,0.15-0.76,0.23-1.13
				c0,0,0,0,0,0c0.07-0.14,0.13-0.27,0.09-0.42c-0.03-0.1-0.09-0.16-0.17-0.2c-0.01-0.01-0.02-0.02-0.03-0.04
				c0.02-0.01,0.03-0.03,0.04-0.04c0.03-0.27,0.07-0.55,0.12-0.83H897.6c-2.57,0-4.66,2.09-4.66,4.66v32.95
				c0,0.81,0.66,1.47,1.47,1.47h12.3c0.08,0.21,0.22,0.38,0.48,0.33c0.1-0.01,0.19-0.06,0.25-0.12c0.18,0.16,0.46,0.17,0.64,0.01
				c0.2-0.12,0.3-0.38,0.31-0.61c0-0.12-0.01-0.24-0.01-0.35c0.09-0.05,0.17-0.12,0.22-0.21c0.19-0.41,0.05-0.88,0.02-1.31
				C908.57,651.29,908.52,650.8,908.47,650.31z"/>
			<line class="st18" x1="908.57" y1="614.96" x2="908.57" y2="654.04"/>
		</g>
		<g>
			<defs>
				<rect id="SVGID_11_" x="909.01" y="614.96" width="16.5" height="39.51"/>
			</defs>
			<clipPath id="SVGID_12_">
				<use xlink:href="#SVGID_11_"  style="overflow:visible;"/>
			</clipPath>
			<g class="st19">
				<path class="st3" d="M911.29,653.75h13.36v-33.87c0-2.4-2.3-4.35-5.14-4.35l-9.85-0.14c0-0.01,0-0.02,0-0.03
					c0-0.13,0-0.25,0-0.38c0,0.13,0,0.25,0,0.38c0,0.01,0,0.02,0,0.03l-0.3,0c0-0.1-0.01-0.19-0.01-0.29c0-0.05,0-0.1,0-0.15l0.32,0
					l10.17,0.15c2.92,0.04,5.27,2.04,5.3,4.51l0.38,34.86H911.3C911.31,654.23,911.3,653.99,911.29,653.75z"/>
				<path class="st4" d="M909.66,614.96l-0.32,0c0,0.05,0,0.1,0,0.15c0,0.1,0.01,0.19,0.01,0.29l0.3,0c0-0.01,0-0.02,0-0.03
					c0-0.13,0-0.25,0-0.38c0,0.13,0,0.25,0,0.38c0,0.01,0,0.02,0,0.03l9.85,0.14c2.84,0,5.14,1.95,5.14,4.35v33.87h-13.36
					c0.01,0.24,0.02,0.48,0.01,0.72h14.21l-0.38-34.86c-0.03-2.47-2.38-4.47-5.3-4.51L909.66,614.96L909.66,614.96z"/>
			</g>
			<path class="st20" d="M909.54,650.31c0.01-0.26,0.02-0.53,0.04-0.79c0-0.27,0.01-0.53,0.01-0.79c0.03-0.25-0.02-0.55,0.14-0.76
				c-0.02-0.03-0.03-0.05-0.05-0.08c-0.03-0.44-0.04-0.88-0.07-1.32c-0.02-0.28-0.06-0.54-0.13-0.79c0.04-0.41,0.08-0.81,0.12-1.21
				c-0.01-0.64,0.05-1.28,0.12-1.92c-0.06-0.23-0.09-0.47-0.13-0.69c-0.18-1.43-0.1-2.86,0.03-4.28c-0.02-0.22-0.04-0.43-0.06-0.63
				c-0.03-0.16-0.04-0.27-0.05-0.37c-0.02-0.08-0.03-0.17-0.03-0.25c-0.01-0.1-0.01-0.19,0.01-0.28c0-0.02,0-0.03,0-0.05
				c0.03-0.31,0.06-0.63,0.1-0.94c-0.01-0.73-0.03-1.46-0.06-2.19c-0.04-0.75-0.06-1.76-0.03-2.26c-0.01-0.18,0.15-0.33,0.32-0.34
				c0-0.05,0.01-0.09,0.01-0.14c0-0.02,0-0.04,0-0.06c-0.01-0.75-0.07-1.72-0.08-2.64c-0.05-0.23-0.09-0.45-0.1-0.68c0,0,0,0,0-0.01
				c0-0.08-0.01-0.17,0-0.25c0.04-0.06,0.08-0.1,0.12-0.13c0,0,0-0.01,0-0.01c-0.01-0.07,0-0.14,0.01-0.21
				c0-0.19-0.01-0.37-0.02-0.56c-0.01-0.06-0.01-0.12-0.02-0.18c0-0.01-0.01-0.02-0.01-0.03c-0.13-1.48-0.21-2.64-0.41-3.85
				c-0.02-0.23,0.13-0.4,0.32-0.47c-0.18-0.85-0.12-2.06-0.08-2.9c0.01-0.18,0.02-0.43,0.06-0.66c-0.1-0.37-0.15-0.76-0.23-1.13
				c0,0,0,0,0,0c-0.07-0.14-0.13-0.27-0.09-0.42c0.03-0.1,0.09-0.16,0.17-0.2c0.01-0.01,0.02-0.02,0.03-0.04
				c-0.02-0.01-0.03-0.03-0.04-0.04c-0.03-0.27-0.07-0.55-0.12-0.83h11.07c2.57,0,4.66,2.09,4.66,4.66v32.95
				c0,0.81-0.66,1.47-1.47,1.47h-12.3c-0.08,0.21-0.22,0.38-0.48,0.33c-0.1-0.01-0.19-0.06-0.25-0.12
				c-0.18,0.16-0.46,0.17-0.64,0.01c-0.2-0.12-0.3-0.38-0.31-0.61c0-0.12,0.01-0.24,0.01-0.35c-0.09-0.05-0.17-0.12-0.22-0.21
				c-0.19-0.41-0.05-0.88-0.02-1.31C909.44,651.29,909.49,650.8,909.54,650.31z"/>
			<line class="st21" x1="909.44" y1="614.96" x2="909.44" y2="654.04"/>
		</g>
	</g>
	<rect x="431.95" y="108.81" class="st0" width="4.28" height="4.28"/>
	<rect x="886.35" y="654.44" class="st0" width="0" height="0"/>
	<g>
		<g>
			<defs>
				<rect id="SVGID_13_" x="886.75" y="695.81" width="44.75" height="35.36"/>
			</defs>
			<clipPath id="SVGID_14_">
				<use xlink:href="#SVGID_13_"  style="overflow:visible;"/>
			</clipPath>
			<g class="st22">
				<path d="M928.61,727.85c-4.43,0-7.42-0.58-8.99-1.73c-1.56-1.15-2.53-2.92-2.89-5.3s-0.54-7.42-0.54-15.12l-0.02-9.61
					c-1.25-0.03-2.5-0.13-3.75-0.24c-2.8,0.1-5.62,0.22-8.42,0.07c-0.65-0.04-1.3-0.07-1.95-0.1v9.88c0,8.18-0.22,13.39-0.65,15.63
					c-0.43,2.24-1.46,3.89-3.07,4.94c-1.61,1.06-4.51,1.59-8.7,1.59h-2.89v3.32l44.75,0v-3.32H928.61z"/>
			</g>
		</g>
		<g>
			<defs>
				<rect id="SVGID_15_" x="886.75" y="660.45" width="44.75" height="35.36"/>
			</defs>
			<clipPath id="SVGID_16_">
				<use xlink:href="#SVGID_15_"  style="overflow:visible;"/>
			</clipPath>
			<g class="st23">
				<path d="M928.61,663.77c-4.43,0-7.42,0.58-8.99,1.73c-1.56,1.15-2.53,2.92-2.89,5.3c-0.36,2.38-0.54,7.42-0.54,15.12l-0.02,9.61
					c-1.25,0.03-2.5,0.13-3.75,0.24c-2.8-0.1-5.62-0.22-8.42-0.07c-0.65,0.04-1.3,0.07-1.95,0.1v-9.88c0-8.18-0.22-13.39-0.65-15.63
					c-0.43-2.24-1.46-3.89-3.07-4.94c-1.61-1.06-4.51-1.59-8.7-1.59h-2.89v-3.32h44.75v3.32H928.61z"/>
			</g>
		</g>
	</g>
	<rect x="934.72" y="706.86" class="st0" width="42.15" height="9.22"/>
	<path d="M905.97,692.68c-0.01,0.02-0.02,0.04-0.04,0.06c-0.01-0.02-0.02-0.03-0.04-0.04c-0.1-0.04-0.2,0.07-0.27,0.16
		c-0.09,0.14-0.18,0.3-0.27,0.46c-0.01-0.05-0.03-0.08-0.06-0.09c0-0.01-0.01-0.03-0.01-0.04c0.02-0.06,0.01-0.14-0.03-0.18
		c-0.01-0.01-0.01-0.01-0.02-0.02c0,0,0,0,0,0c-0.01-0.08-0.07-0.15-0.13-0.11c0,0-0.01,0-0.01,0.01c-0.04-0.03-0.09-0.03-0.13,0.02
		c-0.15,0.31-0.28,0.63-0.39,0.97c0-0.06,0.01-0.11,0-0.17c-0.01-0.02-0.01-0.03-0.02-0.04c0.01-0.08,0.03-0.17,0.04-0.25
		c0.02-0.08,0.01-0.18-0.04-0.23c0.02-0.1,0.04-0.21,0.06-0.31c0.01-0.12-0.08-0.25-0.16-0.16c-0.01,0.02-0.01,0.03-0.02,0.05
		c-0.04-0.04-0.1-0.03-0.13,0.03c-0.07,0.15-0.1,0.27-0.13,0.39c-0.04-0.07-0.11-0.09-0.19,0c-0.1,0.17-0.17,0.36-0.24,0.56
		c0.01-0.08-0.01-0.15-0.09-0.17c-0.08,0.01-0.1,0.09-0.12,0.15c0,0,0,0,0,0c0-0.04,0-0.08-0.01-0.11c0-0.01-0.01-0.01-0.01-0.02
		c0.01-0.08,0.02-0.16,0.01-0.24c-0.02-0.1-0.08-0.14-0.15-0.13c-0.04-0.03-0.08-0.02-0.14,0.04c-0.06,0.11-0.03,0.09-0.07,0.2
		c-0.07,0.22-0.12,0.45-0.15,0.69c0-0.04,0-0.08,0-0.11c0.01-0.15-0.02-0.45-0.17-0.35c-0.03,0.03-0.04,0.07-0.06,0.11
		c-0.01,0.01-0.01,0.01-0.02,0.02c-0.01,0.02-0.01,0.04-0.02,0.06c-0.02-0.04-0.05-0.06-0.12-0.03c0,0.01,0,0.02-0.01,0.03
		c-0.01-0.01-0.01-0.01-0.01,0c0,0,0.01,0.01,0.01,0.01c-0.01,0.02-0.01,0.04-0.02,0.06c-0.01,0-0.02,0.01-0.02,0.03
		c0,0.03-0.01,0.06-0.01,0.08c-0.01,0.06-0.02,0.11-0.04,0.17c-0.02-0.09-0.07-0.13-0.15-0.04c-0.02,0.04-0.03,0.08-0.05,0.13
		c-0.02,0.01-0.03,0.04-0.05,0.07c-0.02,0.01-0.04,0.02-0.05,0.05c-0.02,0.06-0.03,0.11-0.03,0.18c-0.03,0.01-0.05,0.04-0.06,0.08
		c-0.02,0.03-0.03,0.08-0.03,0.12c0,0.04-0.01,0.19,0.02,0.21c0.01,0.03,0.02,0.05,0.03,0.06c0,0.01,0,0.03,0.01,0.05
		c0.04,0.04,0.06,0.03,0.08,0c0.02,0.13,0.08,0.28,0.18,0.23c0,0.02,0,0.05,0,0.07c0,0,0,0,0,0c0,0.02,0,0.04,0,0.07
		c0,0.01,0.01,0.02,0.02,0.02c0.03-0.01,0.03-0.06,0.03-0.1c0.01-0.03,0.01-0.08,0.02-0.13c0,0.08,0.01,0.15,0.01,0.21
		c0,0.07,0.03,0.13,0.06,0.15c0.01,0.16,0.03,0.29,0.14,0.26c0,0.18,0.01,0.39,0.1,0.47c0.09,0.03,0.13-0.04,0.15-0.15c0,0,0,0,0,0
		c0.03,0.15,0.12,0.28,0.22,0.12c0.01,0.01,0.03,0.01,0.04,0.01c0,0,0.01,0,0.01,0c0.01,0,0.01,0,0.01,0
		c0.02-0.01,0.03-0.02,0.04-0.03c0,0,0,0,0,0c0,0,0,0,0,0c0.01-0.01,0.01-0.02,0.02-0.04c0.02,0.04,0.03,0.07,0.06,0.09
		c0.04,0.08,0.1,0.09,0.15,0.05c0,0.04,0.01,0.09,0.01,0.13c0,0.02,0,0.03,0,0.05h0.01c0.01,0.03,0.01,0.07,0.02,0.1
		c0.04,0.06,0.12,0.05,0.16-0.03c0-0.02,0-0.05,0.01-0.07h0.01c0-0.01,0-0.03,0-0.04c0.01-0.15-0.01-0.31-0.01-0.46
		c0-0.02,0-0.04,0-0.06c0.01,0,0.03,0,0.04-0.01c0,0.01,0,0.01,0,0.02c-0.01,0.13-0.04,0.38,0.1,0.37c0.02,0,0.04-0.02,0.05-0.04
		c-0.02,0.28-0.01,0.57,0.14,0.48c0.02-0.03,0.03-0.07,0.05-0.11c0,0,0,0,0,0c0,0,0,0,0,0c0.03-0.09,0.04-0.19,0.05-0.29
		c0.02,0.1,0.06,0.15,0.15,0.13c0,0.29,0.04,0.51,0.19,0.41c0.03-0.07,0.05-0.16,0.07-0.25c0.03-0.02,0.04-0.07,0.05-0.11
		c0,0,0,0,0,0c0-0.01,0-0.01,0-0.02c0-0.01,0-0.02,0-0.03c0-0.05,0.01-0.1,0.02-0.15c0.02-0.09,0.03-0.17,0.05-0.26
		c0.01,0.08,0.06,0.13,0.12,0.13c0.08-0.03,0.09-0.09,0.13-0.18c0.02,0.07,0.09,0.12,0.14,0.07c0.02-0.02,0.03-0.05,0.05-0.07
		c0.03,0.05,0.08,0.07,0.13,0.04c0.01-0.02,0.02-0.04,0.03-0.06c0,0,0.01,0,0.01,0.01c0.01-0.03,0.02-0.07,0.03-0.1
		c0.06-0.12,0.11-0.24,0.17-0.37c-0.07,0.17-0.13,0.35-0.19,0.52c-0.05,0.18-0.17,0.37-0.15,0.57c0.03,0.08,0.07,0.09,0.1,0.07
		c0,0.04,0.02,0.08,0.06,0.1c0.06,0.02,0.09-0.03,0.12-0.09c0,0,0,0,0.01-0.01c0.01-0.01,0.01-0.03,0.02-0.04
		c0.04,0.02,0.09,0,0.11-0.05c0,0,0,0.01,0,0.01c0,0.05,0.02,0.09,0.05,0.11c0.14,0.09,0.19-0.16,0.26-0.28
		c0-0.01,0.01-0.02,0.01-0.03c-0.02,0.07-0.02,0.13-0.03,0.18c0,0,0,0,0,0c0,0,0,0,0,0c-0.01,0.13,0.02,0.2,0.09,0.19
		c0.05-0.01,0.08-0.08,0.1-0.14c0.04-0.08,0.07-0.16,0.11-0.24c0,0,0.01,0,0.01,0c-0.01,0.02-0.01,0.04-0.02,0.06
		c-0.01,0.08,0.04,0.15,0.09,0.17c0.09,0.01,0.16-0.09,0.22-0.21c0,0.03,0.01,0.05,0.02,0.08c0.05,0.09,0.15,0.05,0.19-0.04
		c0.03-0.07,0.06-0.13,0.09-0.2c0.02,0.06,0.08,0.09,0.12,0.06c0.06-0.04,0.09-0.12,0.12-0.2c0,0.13,0.11,0.16,0.18,0.08
		c0.03-0.05,0.05-0.1,0.08-0.14c0,0.02,0,0.03,0.01,0.04c-0.05,0.15,0,0.34,0.13,0.24c0.03-0.05,0.05-0.1,0.07-0.15
		c0.04,0.02,0.09,0.01,0.13-0.03c0,0.07,0.03,0.14,0.08,0.15c0,0,0,0.01,0,0.01c0.01,0.08,0.08,0.12,0.13,0.07
		c0.02-0.02,0.04-0.06,0.05-0.09c0.01-0.01,0.02-0.04,0.02-0.07c0.01-0.03,0.02-0.05,0.03-0.07c0.1-0.3,0.22-0.59,0.33-0.88
		c0.01-0.02,0.02-0.04,0.03-0.06c0.01-0.03,0.03-0.06,0.05-0.1c0,0.03,0,0.05,0.01,0.08c0,0.12,0.05,0.25,0.15,0.22
		c0.01,0.03,0.03,0.05,0.06,0.06c0,0,0,0.01,0,0.01c0,0.01,0,0.02,0.01,0.03c0,0,0,0.03,0,0.09c-0.01,0.11,0.05,0.25,0.14,0.21
		c0.04-0.01,0.06-0.05,0.07-0.09c0.01,0,0.01,0.01,0.02,0.01c0.1-0.01,0.09-0.15,0.07-0.28c0.01-0.01,0.02-0.02,0.02-0.04
		c0,0,0,0,0,0c0.07,0.03,0.15-0.04,0.16-0.15c0.01-0.01,0.02-0.02,0.03-0.03c0,0,0-0.01,0-0.01c0.03-0.03,0.04-0.07,0.04-0.12
		c0,0,0,0,0,0c0.01-0.09,0-0.2,0-0.3c0-0.05,0-0.1,0-0.14c0,0,0-0.01,0-0.01c0-0.11,0.02-0.23-0.01-0.34c0-0.04-0.01-0.08-0.04-0.12
		c-0.01-0.04-0.03-0.07-0.05-0.08c0-0.04,0-0.06,0-0.05c0-0.03,0-0.06,0-0.1c-0.02-0.1-0.08-0.13-0.13-0.12c0-0.05,0-0.1,0-0.15
		c0-0.02-0.01-0.03-0.01-0.04c0.05-0.1,0-0.27-0.1-0.21c-0.02,0.03-0.04,0.06-0.05,0.09c0-0.01,0-0.01,0-0.01
		c0-0.01-0.02,0.03-0.03,0.04c-0.02,0.03-0.03,0.06-0.05,0.09c-0.05,0.01-0.09,0.06-0.1,0.14c0,0.02,0,0.05-0.01,0.07
		c-0.01,0.01-0.01,0.02-0.01,0.03c-0.01,0.01-0.02,0.02-0.03,0.04c0,0,0,0,0,0.01c0,0-0.01,0-0.01,0c0.02-0.06,0.04-0.11,0.06-0.16
		c0.01-0.05-0.01-0.11-0.04-0.14c0-0.03-0.01-0.06-0.02-0.08c-0.01-0.01-0.01-0.01-0.02-0.02c0.05-0.11,0.1-0.23,0.14-0.33
		c0.04-0.09,0.08-0.22,0.02-0.31c-0.03-0.05-0.1-0.05-0.13,0c-0.13,0.16-0.24,0.34-0.35,0.52c-0.01,0-0.02,0-0.03,0
		c0.01-0.03,0.03-0.05,0.04-0.08c0.07-0.13-0.05-0.31-0.14-0.19c-0.05,0.09-0.1,0.19-0.16,0.28c-0.02,0-0.03,0.01-0.05,0.02
		c0-0.01,0-0.02,0-0.03c0.01-0.07,0.01-0.13-0.03-0.17c0.01-0.05,0.01-0.1-0.03-0.14c-0.12-0.11-0.19,0.15-0.26,0.25
		c-0.01,0.01-0.01,0.03-0.02,0.04c-0.05-0.04-0.12-0.02-0.15,0.07c-0.01-0.04-0.04-0.08-0.08-0.08c-0.02,0-0.05,0.01-0.07,0.04
		c-0.04,0.07-0.08,0.13-0.11,0.2c-0.03-0.01-0.06-0.01-0.11,0.02c-0.06,0.07-0.11,0.15-0.16,0.22c0-0.04-0.02-0.07-0.04-0.1
		c0.01-0.03,0.02-0.06,0.04-0.09c0,0,0,0-0.01-0.01c0.01-0.01,0.01-0.03,0.02-0.04c0-0.01,0-0.01,0-0.02
		c0.02-0.11-0.03-0.22-0.12-0.17c-0.05,0.05-0.09,0.12-0.13,0.19c-0.03-0.01-0.07,0.01-0.09,0.04c-0.03-0.01-0.07,0-0.1,0.03
		c-0.07,0.08-0.14,0.17-0.2,0.25c0.03-0.07,0.06-0.14,0.09-0.2c0.04-0.09,0.12-0.23,0.07-0.33c0.02-0.13-0.1-0.26-0.17-0.15
		c-0.03,0.04-0.06,0.09-0.09,0.13c-0.02-0.06-0.07-0.09-0.12-0.06c0.01-0.03,0.03-0.06,0.04-0.09c0.01-0.02,0.02-0.05,0.04-0.08
		c0,0,0,0,0,0c0.01-0.01,0.01-0.02,0.02-0.03c0.01-0.03,0.01-0.05,0.01-0.08c0,0,0-0.01,0-0.01c0.03-0.05,0.03-0.12,0.01-0.18
		c0.01-0.03,0.03-0.07,0.04-0.1C906.13,692.75,906.05,692.63,905.97,692.68z"/>
</g>
<g id="Layer_2">
</g>
</svg>
